<svg fill="none" height="396" viewBox="0 0 441 396" width="441" xmlns="http://www.w3.org/2000/svg">
    <path clip-rule="evenodd"
        d="M431.016 168.708C438.652 163.657 442.138 154.137 438.855 145.591C406.15 60.4396 323.601 0 226.935 0C101.602 0 0 101.602 0 226.935C0 290.979 26.53 348.827 69.1997 390.088C75.7872 396.458 85.9175 396.977 93.5603 391.922V391.922C105.552 383.99 105.967 366.438 95.8701 356.202C63.0836 322.963 42.8478 277.312 42.8478 226.935C42.8478 125.266 125.266 42.8478 226.935 42.8478C303.782 42.8478 369.631 89.9359 397.204 156.833C402.686 170.136 419.015 176.646 431.016 168.708V168.708Z"
        fill="#F2575D" fill-rule="evenodd" />
    <path clip-rule="evenodd"
        d="M273.934 152.592C270.843 156.821 272.021 162.752 276.077 166.068C293.611 180.405 304.803 202.207 304.803 226.623C304.803 269.8 269.8 304.803 226.623 304.803C183.445 304.803 148.443 269.8 148.443 226.623C148.443 199.673 162.079 175.907 182.829 161.851C187.364 158.778 188.984 152.572 185.848 148.08V148.08C183.247 144.355 178.245 143.125 174.429 145.588C147.845 162.746 130.246 192.629 130.246 226.623C130.246 279.85 173.395 323 226.623 323C279.851 323 323 279.85 323 226.623C323 195.763 308.496 168.291 285.934 150.652C282.156 147.698 276.764 148.72 273.934 152.592V152.592Z"
        fill="#33535F" fill-rule="evenodd" />
    <path clip-rule="evenodd"
        d="M229.51 83.473C231.08 74.4973 224.72 65.7495 215.629 66.3702C183.489 68.5649 151.698 80.4159 124.878 102.383C56.2109 158.627 46.1397 259.887 102.383 328.553C158.627 397.22 259.886 407.292 328.553 351.048C345.447 337.211 358.794 320.648 368.48 302.517C372.637 294.735 367.655 285.519 359.224 282.919V282.919C351.927 280.669 344.078 284.07 340.331 290.724C332.604 304.447 322.243 316.992 309.325 327.573C253.623 373.197 171.482 365.027 125.858 309.325C80.2344 253.624 88.404 171.483 144.106 125.859C165.071 108.687 189.781 99.1353 214.88 96.8705C222.153 96.2142 228.253 90.6665 229.51 83.473V83.473Z"
        fill="#577CFF" fill-rule="evenodd" />
</svg>
