<svg xmlns:xlink="http://www.w3.org/1999/xlink" fill="none" height="410" width="459"
    xmlns="http://www.w3.org/2000/svg">
    <g fill="#000">
        <path
            d="M63.216 26.367c-16.774 0-30.41 13.636-30.41 30.411s13.636 30.411 30.41 30.411 30.408-13.636 30.408-30.41S79.99 26.367 63.216 26.367zm0 3.495a26.89 26.89 0 0 1 26.913 26.915 26.913 26.913 0 1 1-53.827 0c0-14.885 12.03-26.915 26.915-26.915zm2.715-24.128a1.75 1.75 0 0 0-1.94 1.538L62.488 20.3a1.75 1.75 0 0 0 2.826 1.571 1.75 1.75 0 0 0 .442-.521 1.74 1.74 0 0 0 .209-.65l1.502-13.027a1.75 1.75 0 0 0-1.536-1.939z" />
        <g fill-rule="evenodd">
            <use xlink:href="#B" />
            <use x="17.575" y="40.171" xlink:href="#B" />
            <path
                d="M197.976 115.967a1.43 1.43 0 0 1-.42 1.014c-.269.269-.634.421-1.014.421s-.746-.152-1.015-.421a1.43 1.43 0 0 1-.42-1.014c0-.38.151-.745.42-1.014s.634-.42 1.015-.42.745.151 1.014.42.42.634.42 1.014z" />
            <use x="-38.495" y="62.527" xlink:href="#B" />
        </g>
        <path
            d="M112.704 27.726L96.56 37.138a1.75 1.75 0 0 0-.629 2.393 1.75 1.75 0 0 0 2.393.629l16.144-9.412a1.75 1.75 0 0 0-1.763-3.023zm-13.339 23.37c-.228-.025-.46-.005-.68.059a1.75 1.75 0 0 0-1.194 2.168 1.75 1.75 0 0 0 1.488 1.252l6.61.734a1.76 1.76 0 0 0 1.727-.895 1.78 1.78 0 0 0 .206-.651c.025-.228.005-.46-.059-.68a1.76 1.76 0 0 0-.314-.606 1.75 1.75 0 0 0-.523-.44c-.201-.111-.422-.181-.651-.206l-6.61-.734zM88.192 80.24a1.75 1.75 0 0 0-2.442.41 1.75 1.75 0 0 0 .41 2.442l13.58 9.671a1.75 1.75 0 0 0 1.306.301 1.74 1.74 0 0 0 .638-.243 1.76 1.76 0 0 0 .498-.468 1.75 1.75 0 0 0-.411-2.439l-13.58-9.673zm-15.44 10.505a1.75 1.75 0 0 0-.183 2.468l2.687 3.123a1.75 1.75 0 1 0 2.652-2.285l-2.687-3.121a1.75 1.75 0 0 0-1.874-.522 1.75 1.75 0 0 0-.595.337zm-15.904-.259a1.75 1.75 0 0 0-2.238 1.058l-3.181 8.874a1.75 1.75 0 0 0 .065 1.339 1.74 1.74 0 0 0 .407.548 1.75 1.75 0 0 0 .586.352c.216.077.446.111.676.1s.455-.067.663-.166a1.75 1.75 0 0 0 .549-.406 1.76 1.76 0 0 0 .351-.586l3.181-8.875a1.75 1.75 0 0 0-1.058-2.238zM26.74 72.145a1.75 1.75 0 0 0-1.339.016l-11.573 4.957a1.75 1.75 0 0 0-.919 2.299 1.75 1.75 0 0 0 2.299.919l11.573-4.957a1.75 1.75 0 0 0 .919-2.299 1.75 1.75 0 0 0-.959-.935zm-9.42-22.038a1.75 1.75 0 0 0-1.804 1.695 1.75 1.75 0 0 0 1.695 1.804l3.923.121a1.75 1.75 0 0 0 1.33-2.946 1.75 1.75 0 0 0-1.221-.551l-3.923-.123zm3.053-21.603a1.75 1.75 0 0 0-.983 3.079l4.706 3.98a1.75 1.75 0 1 0 2.261-2.672l-4.706-3.98a1.75 1.75 0 0 0-1.277-.406zm16.415-11.102a1.75 1.75 0 0 0-.35 2.449l2.202 2.938a1.75 1.75 0 0 0 1.836.646 1.75 1.75 0 0 0 .966-2.745l-2.204-2.938a1.75 1.75 0 0 0-2.449-.35zm125.424 67.771c-.608.106-1.213.334-1.782.658-2.275 1.296-4.59 3.998-7.861 8.943l-60.317 93.553c-9.498 15.518-12.405 16.084-20.92 23.657-4.44 3.944-6.913 8.196-9.699 11.063s-5.648 4.582-11.905 4.143c-6.835-.48-10.818.408-13.884 2.674s-5.011 5.462-8.77 9.565c-4.085 4.452-9.298 12.622-13.608 19.778s-7.652 13.255-7.652 13.255a1.75 1.75 0 0 0 .694 2.375 1.76 1.76 0 0 0 .652.205 1.74 1.74 0 0 0 1.287-.375 1.76 1.76 0 0 0 .439-.524s3.31-6.042 7.579-13.13 9.563-15.266 13.19-19.219c3.943-4.304 5.967-7.413 8.271-9.116s5.089-2.449 11.557-1.995c7.056.495 11.433-1.876 14.66-5.197s5.542-7.357 9.514-10.885c8.287-7.374 11.93-8.677 21.582-24.446 9.49-15.526 53.861-83.791 60.25-93.45 3.154-4.768 5.472-7.147 6.672-7.831.6-.342.765-.286.847-.261s.306.149.623.625c1.825 2.74 4.535 6.584 9.353 7.475 3.887.72 7.33 1.587 10.395 8.002 1.754 3.661 5.593 9.778 9.041 15.102l6.482 9.784a1.75 1.75 0 0 0 2.431.463 1.76 1.76 0 0 0 .479-.487 1.75 1.75 0 0 0 .256-.633c.043-.226.041-.458-.006-.683s-.137-.439-.267-.629l-6.439-9.717c-3.423-5.285-7.278-11.496-8.82-14.71v-.003c-3.504-7.332-8.73-9.155-12.914-9.93-3.254-.602-5.32-3.334-7.079-5.975-.578-.869-1.38-1.695-2.536-2.039-.577-.172-1.188-.19-1.795-.084z" />
        <path
            d="M112.702 151.601l-74.926 2.632c-.464.016-.902.216-1.218.556a1.75 1.75 0 0 0 1.341 2.941l74.927-2.63a1.75 1.75 0 0 0 1.687-1.81c-.008-.23-.061-.456-.156-.665s-.231-.398-.399-.555a1.74 1.74 0 0 0-1.255-.469zm-81.575-7.021a1.74 1.74 0 0 0-.574-.37c-.214-.085-.442-.126-.672-.123a1.73 1.73 0 0 0-.668.145c-.211.092-.402.223-.562.388-.401.415-.602.503-.875.568s-.711.07-1.416-.017c-1.41-.172-3.707-.668-7.078-.547-3.987.145-6.799 2.947-8.265 5.643-.733 1.349-1.176 2.689-1.249 3.966-.036.639 0 1.282.314 1.955s1.07 1.363 1.923 1.516c.969.174 2.271.187 4.084.207l6.081-.02 8.086-.161a1.74 1.74 0 0 0 .666-.151 1.75 1.75 0 0 0 .557-.395 1.76 1.76 0 0 0 .479-1.252 1.75 1.75 0 0 0-.546-1.223 1.75 1.75 0 0 0-.578-.363 1.76 1.76 0 0 0-.673-.115l-8.034.159-5.999.02a38.01 38.01 0 0 1-2.817-.121c.055-.546.284-1.433.782-2.348 1.056-1.944 2.951-3.734 5.317-3.819 2.981-.108 4.816.315 6.526.525.855.104 1.724.167 2.655-.055s1.831-.765 2.578-1.536c.16-.165.286-.36.37-.574a1.75 1.75 0 0 0-.411-1.902zm100.498-39.47c-4.609-.174-10.495.811-17.618 3.761-7.459 3.093-13.02 9.684-16.801 15.432a65.14 65.14 0 0 0-4.579 8.121c-4.229-5.301-8.548-9.134-13.459-11.159-5.614-2.317-11.871-2.277-19.09-.055-7.279 2.239-11.428 5.815-13.996 8.903-1.284 1.544-2.187 2.96-2.888 3.95s-1.227 1.395-1.227 1.395c-6.271 2.143-9.323 8.187-9.323 8.187a1.75 1.75 0 0 0-.194.655 1.76 1.76 0 0 0 .071.68c.068.22.179.423.326.6a1.75 1.75 0 0 0 1.864.552c.443-.137.813-.445 1.029-.856 0 0 2.715-4.919 7.358-6.506 1.452-.497 2.167-1.582 2.948-2.684s1.596-2.38 2.723-3.735c2.253-2.708 5.684-5.749 12.335-7.794 6.701-2.063 11.956-2.025 16.727-.057s9.183 5.986 13.789 12.271c.185.252.433.45.72.574s.601.168.911.128a1.75 1.75 0 0 0 1.405-1.086s1.889-4.719 5.469-10.161 8.84-11.476 15.217-14.122c13.472-5.578 21.622-3.099 24.003-1.114a1.75 1.75 0 0 0 2.464-.223c.147-.176.258-.38.327-.6a1.75 1.75 0 0 0 .072-.679c-.021-.229-.086-.452-.193-.655a1.74 1.74 0 0 0-.43-.531c-2.021-1.686-5.355-3.018-9.964-3.192h.002zm29.998 27.368c-.226-.041-.458-.037-.683.011a1.76 1.76 0 0 0-.626.272 1.75 1.75 0 0 0-.445 2.434l2.327 3.366c.13.19.297.351.49.476a1.74 1.74 0 0 0 .635.252c.226.042.458.038.683-.01s.438-.141.627-.271a1.75 1.75 0 0 0 .475-.491 1.76 1.76 0 0 0 .252-.635c.041-.226.037-.458-.011-.683a1.74 1.74 0 0 0-.272-.627l-2.326-3.366a1.74 1.74 0 0 0-1.126-.728zm9.532 18.507c-.224-.054-.456-.064-.683-.029a1.76 1.76 0 0 0-.643.234c-.196.12-.367.277-.503.462a1.73 1.73 0 0 0-.287.62 1.72 1.72 0 0 0-.029.682 1.76 1.76 0 0 0 .234.642l8.752 14.384a1.72 1.72 0 0 0 .462.503c.186.136.396.234.619.288s.455.064.683.029a1.75 1.75 0 0 0 .641-.234c.396-.242.68-.63.79-1.081a1.75 1.75 0 0 0-.205-1.323l-8.751-14.384c-.241-.397-.63-.682-1.08-.793zm-10.624 12.251a1.76 1.76 0 0 0-.682-.041c-.228.031-.447.107-.645.222a1.75 1.75 0 0 0-.512.453c-.139.182-.241.391-.3.613a1.74 1.74 0 0 0-.042.682c.031.227.106.447.222.646l2.387 4.1a1.76 1.76 0 0 0 .452.512c.183.139.392.241.614.299a1.74 1.74 0 0 0 .681.042c.228-.03.448-.106.646-.222a1.73 1.73 0 0 0 .512-.452 1.76 1.76 0 0 0 .3-.613 1.78 1.78 0 0 0 .042-.682c-.031-.228-.107-.447-.222-.646l-2.387-4.1a1.76 1.76 0 0 0-.452-.512 1.75 1.75 0 0 0-.614-.301zm6.487-53.585c-.402.231-.696.612-.818 1.059a1.75 1.75 0 0 0 .17 1.328c11.046 19.26 21.026 39.19 30.042 59.729.187.425.534.758.966.927a1.75 1.75 0 0 0 2.265-.994 1.75 1.75 0 0 0-.027-1.339c-9.064-20.646-19.1-40.688-30.211-60.063a1.75 1.75 0 0 0-2.387-.647zM24.62 347.492c-7.619.343-13.26 2.245-17.994 4.709a1.77 1.77 0 0 0-.533.428 1.75 1.75 0 0 0 .814 2.794 1.75 1.75 0 0 0 1.333-.117c4.388-2.284 9.413-3.998 16.538-4.319a1.75 1.75 0 0 0 1.506-2.489c-.097-.208-.235-.395-.405-.551s-.368-.275-.585-.353-.446-.113-.675-.102zm14.312-1.802l-3.726.147a1.75 1.75 0 0 0-1.121 3.033 1.76 1.76 0 0 0 .583.357c.216.08.445.116.675.107l3.726-.147a1.75 1.75 0 0 0 1.681-1.816 1.76 1.76 0 0 0-.159-.665c-.096-.209-.233-.396-.401-.552a1.76 1.76 0 0 0-.582-.358 1.74 1.74 0 0 0-.675-.106zm191.337-7.276c-62.339 1.249-124.218 2.822-181.817 7.28a1.74 1.74 0 0 0-.658.184c-.205.104-.388.247-.537.422a1.75 1.75 0 0 0 1.464 2.883c57.47-4.448 119.29-6.021 181.616-7.27a1.75 1.75 0 0 0 1.227-.537c.322-.334.497-.783.488-1.247a1.75 1.75 0 0 0-.536-1.227c-.335-.321-.783-.497-1.247-.488zm-108.61 8.207c-1.717.635-3.074 1.265-4.135 1.93s-1.889 1.334-2.355 2.398-.092 2.561.682 3.328 1.728 1.168 2.888 1.51c4.638 1.369 13.209 1.42 24.899-.302.228-.033.446-.111.644-.229s.369-.274.506-.458.237-.394.293-.617a1.76 1.76 0 0 0 .034-.682c-.034-.228-.112-.446-.23-.644s-.274-.369-.458-.506-.394-.237-.617-.293a1.76 1.76 0 0 0-.682-.034c-11.414 1.681-19.971 1.419-23.4.407-.566-.168-.705-.29-.935-.423.15-.155.148-.212.589-.488.754-.473 1.924-1.035 3.491-1.615.435-.161.789-.489.983-.91a1.75 1.75 0 0 0-2.197-2.372zm6.043.67c-1.059.082-1.73.245-1.73.245a1.77 1.77 0 0 0-.621.283 1.76 1.76 0 0 0-.465.5c-.121.196-.202.413-.239.64a1.74 1.74 0 0 0 .024.682 1.75 1.75 0 0 0 2.104 1.302s2.016-.454 4.281.012c.225.046.457.048.683.004a1.75 1.75 0 0 0 1.119-.737 1.74 1.74 0 0 0 .265-.629c.047-.225.048-.457.005-.683a1.77 1.77 0 0 0-.257-.633 1.76 1.76 0 0 0-.48-.486 1.74 1.74 0 0 0-.629-.265c-1.555-.32-3.002-.318-4.06-.235zm13.922-.405c-1.972.12-3.117.417-3.117.417a1.75 1.75 0 0 0-1.243 2.139 1.74 1.74 0 0 0 .301.614c.139.183.313.336.512.452a1.77 1.77 0 0 0 .647.221c.228.03.459.015.682-.044 0 0 3.636-.998 9.564.266a1.75 1.75 0 0 0 1.316-.244c.389-.252.662-.648.759-1.102.048-.225.051-.457.01-.683s-.127-.441-.252-.634a1.75 1.75 0 0 0-.476-.49 1.76 1.76 0 0 0-.627-.27c-3.307-.705-6.105-.761-8.076-.642zm66.005 14.236c-.448-.119-.925-.056-1.327.176a1.75 1.75 0 0 0-.814 1.063c-.12.448-.057.926.176 1.327a1.75 1.75 0 0 0 1.062.815s4.941 1.373 10.033.505c.227-.039.443-.122.638-.244s.363-.282.496-.469a1.75 1.75 0 0 0 .279-.624c.051-.224.057-.456.019-.683a1.77 1.77 0 0 0-.244-.638c-.122-.195-.282-.363-.47-.496a1.75 1.75 0 0 0-.624-.279c-.224-.051-.456-.057-.683-.018-4.092.698-8.541-.435-8.541-.435zm19.517-7.459c-2.559.121-4.54.625-6.228 1.249-3.376 1.249-5.237 2.642-9.072 2.586-.464-.006-.912.171-1.245.494a1.75 1.75 0 0 0-.53 1.23c-.004.23.038.458.123.672a1.75 1.75 0 0 0 .934.961c.211.091.438.139.668.143 4.721.068 7.417-1.722 10.334-2.802s6.398-1.784 13.92-.064a1.75 1.75 0 0 0 1.32-.224c.393-.247.672-.639.776-1.091.051-.224.057-.456.019-.683s-.122-.443-.244-.638a1.76 1.76 0 0 0-.469-.496c-.188-.133-.4-.228-.624-.279-3.991-.912-7.124-1.178-9.682-1.058zm-1.46 6.146a1.75 1.75 0 0 0-1.242.501c-.331.325-.519.769-.524 1.233a1.75 1.75 0 0 0 1.734 1.765l14.107.127c.229.002.458-.041.671-.127s.407-.214.571-.375a1.73 1.73 0 0 0 .384-.565c.09-.211.137-.439.139-.668a1.76 1.76 0 0 0-.127-.672c-.086-.213-.213-.407-.375-.571a1.74 1.74 0 0 0-.564-.384 1.75 1.75 0 0 0-.669-.139l-14.105-.125zm29.693-1.852c-.229-.002-.458.041-.671.127s-.407.214-.571.375a1.73 1.73 0 0 0-.384.565c-.09.211-.137.439-.139.668a1.75 1.75 0 0 0 1.733 1.766l5.386.048c.464.005.91-.176 1.241-.501a1.75 1.75 0 0 0-1.209-2.998l-5.386-.05zm5.301-9.987l-7.444.294a1.75 1.75 0 0 0-1.681 1.816c.009.23.063.455.159.664a1.74 1.74 0 0 0 .401.553c.169.156.367.278.583.357a1.74 1.74 0 0 0 .675.107l7.444-.294c.464-.018.901-.22 1.216-.561s.482-.793.463-1.257a1.75 1.75 0 0 0-1.816-1.679zm-2.099-7.969l-5.417.333c-.463.038-.891.258-1.192.611a1.75 1.75 0 0 0-.411 1.274 1.74 1.74 0 0 0 .186.657 1.76 1.76 0 0 0 .424.535c.175.149.377.263.596.333a1.75 1.75 0 0 0 .678.08l5.297-.328 8.108.026a1.75 1.75 0 0 0 1.289-.36c.365-.287.602-.706.658-1.166.027-.229.01-.46-.052-.681a1.73 1.73 0 0 0-.308-.61c-.141-.181-.318-.332-.518-.445a1.75 1.75 0 0 0-.649-.213c-2.303-.278-5.724-.183-8.689-.046zm116.445 5.256a1.76 1.76 0 0 0-.675.105 1.74 1.74 0 0 0-.583.356c-.169.155-.306.343-.403.551s-.152.434-.161.664a1.76 1.76 0 0 0 .105.675 1.74 1.74 0 0 0 .356.583c.155.169.343.306.552.403a1.75 1.75 0 0 0 .664.161l53.212 2.998c.229.024.46.003.68-.062s.426-.174.605-.318a1.76 1.76 0 0 0 .437-.526c.11-.202.178-.424.202-.653a1.73 1.73 0 0 0-.063-.679 1.74 1.74 0 0 0-.318-.605c-.144-.178-.323-.326-.525-.436s-.424-.178-.652-.202c-12.558-1.323-53.433-3.015-53.433-3.015zm64.935 4.421c-.462-.03-.918.125-1.266.432a1.75 1.75 0 0 0-.502 1.878c.074.217.19.418.341.591a1.73 1.73 0 0 0 .542.415 1.75 1.75 0 0 0 .66.177l4.078.239 5.635.203a1.75 1.75 0 0 0 1.703-1.794c-.005-.229-.056-.456-.15-.666a1.76 1.76 0 0 0-.393-.558 1.77 1.77 0 0 0-.577-.365 1.76 1.76 0 0 0-.673-.116c-.749.019-3.217-.083-5.356-.199l-4.042-.237zm-26.645-143.989a6.42 6.42 0 0 0-5.323 1.233c-2.71 2.141-3.956 5.597-5.649 7.794-1.96 2.546-6.783 9.132-11.8 15.24-2.508 3.054-5.062 5.981-7.274 8.169s-4.331 3.553-4.768 3.646c-2.972.628-4.852 1.703-6.441 2.258s-2.935.791-5.809-.014v.002c-2.355-.661-6.922-4.136-10.512-7.453s-6.417-6.425-6.417-6.425c-.312-.344-.747-.549-1.211-.571a1.75 1.75 0 0 0-1.26.452 1.76 1.76 0 0 0-.407.549c-.098.208-.154.434-.165.663a1.75 1.75 0 0 0 .101.676 1.76 1.76 0 0 0 .352.586s2.915 3.205 6.632 6.64 8.026 7.152 11.942 8.251c3.406.955 5.884.657 7.909-.05s3.548-1.62 6.01-2.14v-.002c2.277-.481 4.143-2.243 6.504-4.579s4.966-5.33 7.517-8.436c5.102-6.211 9.999-12.898 11.868-15.326 2.138-2.776 3.568-6.015 5.046-7.183.739-.584 1.292-.796 2.425-.555s2.878 1.136 5.223 3.171a503.62 503.62 0 0 1 18.44 16.919c.333.323.78.501 1.244.495a1.75 1.75 0 0 0 1.725-1.773 1.75 1.75 0 0 0-.529-1.23s-8.676-8.444-18.586-17.053v-.002c-2.592-2.25-4.74-3.517-6.789-3.952h.002zm9.265-41.839c-1.14.058-2.284.236-3.419.551-4.007 1.11-7.744 4.043-10.726 8.846-2.733-2.27-6.222-3.293-9.563-2.602-3.666.758-6.874 3.699-8.397 8.386-2.444-.404-4.938-.32-7.049.641-2.594 1.182-4.617 3.853-4.152 7.119a1.75 1.75 0 0 0 1.727 1.505l60.962.183a1.76 1.76 0 0 0 1.018-.322c.297-.211.521-.509.641-.853 1.381-3.974.469-8.291-1.679-12.038s-5.549-7.02-9.558-9.116c-3.007-1.571-6.387-2.476-9.805-2.3zm.191 3.495c2.701-.137 5.45.579 7.993 1.908 3.392 1.773 6.358 4.641 8.143 7.755 1.541 2.689 2.12 5.469 1.649 7.967l-57.562-.175c.287-.809.825-1.461 1.882-1.942 1.637-.745 4.133-.901 6.278-.266a1.75 1.75 0 0 0 .712.06c.239-.03.47-.108.677-.231a1.76 1.76 0 0 0 .528-.481 1.75 1.75 0 0 0 .291-.653c1.008-4.604 3.504-6.652 6.22-7.213s5.804.495 7.863 2.994a1.76 1.76 0 0 0 .689.507c.267.109.558.151.846.12a1.75 1.75 0 0 0 .802-.295c.239-.163.434-.383.567-.64 2.789-5.395 6.226-8.011 9.747-8.987a12.29 12.29 0 0 1 2.675-.428zm19.532 207.913a4.97 4.97 0 0 0-3.006 1.711c-1.83 2.196-3.849 2.965-8.046 3.616-4.716.731-8.151 3.961-8.794 4.583l-3.242.141a1.75 1.75 0 0 0-1.61 1.878 1.74 1.74 0 0 0 .183.658 1.75 1.75 0 0 0 .422.538 1.76 1.76 0 0 0 .595.335 1.75 1.75 0 0 0 .678.082s22.489-1.665 36.103.742c.329.058.668.02.977-.108a1.75 1.75 0 0 0 .764-.618c.823-1.186 1.238-2.446.927-3.65s-1.243-1.924-2.021-2.303a6.65 6.65 0 0 0-2.371-.653l-3.219-3.334c-1.367-1.372-3.166-2.65-5.168-3.301-1.002-.325-2.073-.493-3.172-.317zm.553 3.455c.373-.06.912-.01 1.537.193 1.248.405 2.758 1.423 3.77 2.439l3.614 3.741c.16.174.353.315.569.413a1.75 1.75 0 0 0 .686.156l1.074.229c-8.662-1.256-17.553-1.278-24.858-1.014.829-.383 1.692-.695 2.538-.826 4.493-.696 7.746-1.889 10.2-4.835.274-.33.497-.437.87-.496zM10.189 366.89c-5.375.738-9.379 3.368-9.379 3.368a1.75 1.75 0 0 0 .559 3.185c.453.101.927.018 1.319-.23 0 0 6.35-3.892 12.645-2.814 6.243 1.071 11.497 7.245 13.918 10.282 1.614 2.02 4.053 2.682 6.612 2.76s5.479-.29 9.031-.469c14.36-.726 34.653 1.679 46.99 6.478 3.939 1.533 11.691 3.559 21.566 3.034 9.121-.486 18.085 2.92 29.696.895 10.33-1.802 26.577 2.978 35.779 11.02.173.152.374.267.592.341a1.77 1.77 0 0 0 .677.088c.229-.016.453-.076.659-.179a1.76 1.76 0 0 0 .882-1.009c.073-.217.103-.447.087-.677s-.076-.453-.178-.659a1.75 1.75 0 0 0-.417-.541c-10.175-8.893-26.794-13.907-38.682-11.833-10.629 1.853-19.23-1.476-29.28-.941-9.296.494-16.659-1.458-20.112-2.801-13.157-5.117-33.535-7.466-48.436-6.713-3.686.186-6.634.533-8.748.468s-3.147-.4-3.984-1.443v-.002c-2.46-3.086-8.035-10.171-16.062-11.548-1.999-.342-3.943-.306-5.735-.06zm9.846 34.441a1.75 1.75 0 0 0-1.631 2.41 1.74 1.74 0 0 0 .942.953 1.75 1.75 0 0 0 .669.138l64.789.287 46.485.034 25.336-.327a1.74 1.74 0 0 0 .657-.189 1.75 1.75 0 0 0 .865-1.023c.07-.219.096-.45.077-.679a1.75 1.75 0 0 0-.188-.656c-.106-.205-.25-.386-.426-.535a1.75 1.75 0 0 0-.598-.331 1.73 1.73 0 0 0-.678-.076c-1.939.161-11.838.281-25.055.317s-29.984.012-46.465-.036l-64.779-.287zm142.993-2.591a1.77 1.77 0 0 0-.58-.359 1.76 1.76 0 0 0-.674-.11c-.23.008-.456.061-.665.157a1.75 1.75 0 0 0-.554.399s-.513.547-1.008 1.333-1.073 1.86-1.085 3.254.892 3.028 2.519 3.865 3.851 1.191 7.187 1.126c12.605-.242 36.457.734 36.457.734.23.01.459-.026.675-.105a1.78 1.78 0 0 0 .582-.356 1.77 1.77 0 0 0 .403-.552c.096-.209.151-.434.16-.664a1.76 1.76 0 0 0-.106-.674 1.74 1.74 0 0 0-.356-.583c-.155-.169-.343-.306-.551-.402a1.77 1.77 0 0 0-.664-.161s-23.798-.983-36.666-.736c-3.027.058-4.773-.356-5.52-.74s-.622-.424-.619-.72.234-.925.547-1.422.603-.81.603-.81c.157-.168.279-.365.36-.58s.118-.445.11-.674a1.76 1.76 0 0 0-.156-.665c-.095-.209-.231-.398-.399-.555z" />
        <path
            d="M112.322 394.678a1.76 1.76 0 0 0-.682-.041 1.75 1.75 0 0 0-.646.223c-.198.116-.372.269-.511.453a1.77 1.77 0 0 0-.299.614 1.76 1.76 0 0 0-.041.682 1.75 1.75 0 0 0 .223.646 1.76 1.76 0 0 0 .453.511c.183.139.392.24.614.299 7.579 1.989 16.861 1.931 24.864 2.282 4.001.176 7.678.452 10.559 1.064s4.858 1.583 5.762 2.745c.284.366.703.605 1.164.662a1.75 1.75 0 0 0 1.953-1.518c.058-.461-.07-.925-.354-1.292-1.738-2.235-4.542-3.329-7.797-4.02s-7.07-.958-11.133-1.136c-8.125-.357-17.263-.372-24.129-2.174zm-69.664.899c-6.67 1.064-9.009 6.964-9.009 6.964a1.75 1.75 0 0 0 .038 1.339c.19.423.54.754.973.92a1.75 1.75 0 0 0 2.259-1.012s1.428-3.979 6.29-4.754c2.333-.372 5.041.426 8.082 1.269s6.467 1.702 10.097.647c1.135-.33 4.358-.694 8.319-.872s8.778-.229 13.628-.157 9.738.266 13.841.573 7.499.765 9.007 1.207c.446.13.924.077 1.331-.145a1.75 1.75 0 0 0 .839-1.044c.065-.221.085-.452.061-.68a1.75 1.75 0 0 0-.205-.652 1.73 1.73 0 0 0-.439-.524c-.179-.144-.384-.251-.605-.316-2.146-.627-5.527-1.023-9.727-1.337s-9.142-.511-14.05-.583-9.779-.023-13.837.161-7.186.441-9.14 1.009c-2.557.743-5.232.159-8.187-.66s-6.136-1.9-9.568-1.353h.002z" />
        <path
            d="M94.495 392.673l-4.392.179-5.432.412a1.75 1.75 0 0 0-.654.197 1.76 1.76 0 0 0-.529.432c-.146.178-.256.382-.323.602a1.75 1.75 0 0 0 1.842 2.252l5.299-.402c2.84-.165 6.226-.194 7.3.006.226.042.458.04.683-.008a1.76 1.76 0 0 0 1.105-.759 1.75 1.75 0 0 0-1.149-2.673c-1.033-.193-2.338-.25-3.75-.238zm-18.579-4.43a1.75 1.75 0 0 0-1.692 2.367c.081.215.204.412.361.579s.347.303.556.397a1.74 1.74 0 0 0 .665.154l10.739.336a1.76 1.76 0 0 0 .674-.112 1.77 1.77 0 0 0 .579-.362 1.74 1.74 0 0 0 .397-.556 1.76 1.76 0 0 0 .154-.665 1.75 1.75 0 0 0-.112-.674 1.76 1.76 0 0 0-.361-.58 1.75 1.75 0 0 0-.556-.396 1.74 1.74 0 0 0-.665-.154l-10.739-.334zm-63.86-11.449l-2.443.075a1.75 1.75 0 0 0-1.071 3.049 1.74 1.74 0 0 0 .588.348c.217.076.447.108.676.096l2.284-.069c1.261-.012 2.804.047 3.483.175.456.086.927-.012 1.31-.274a1.75 1.75 0 0 0 .733-1.119c.086-.456-.012-.928-.273-1.312a1.75 1.75 0 0 0-1.12-.734c-1.267-.239-2.82-.248-4.167-.235zm18.502 1.659l-5.011.491a1.74 1.74 0 0 0-.657.187 1.75 1.75 0 0 0-.535.424c-.149.175-.262.378-.332.597a1.75 1.75 0 0 0 .108 1.335 1.74 1.74 0 0 0 .424.535 1.76 1.76 0 0 0 .597.333 1.75 1.75 0 0 0 .678.078l5.22-.515a1.75 1.75 0 0 0 .804-3.132c-.371-.278-.838-.398-1.297-.333zM15.691 371.6a1.75 1.75 0 0 0-.678-.079 1.73 1.73 0 0 0-.656.188 1.75 1.75 0 0 0-.535.424c-.149.175-.262.378-.332.597a1.75 1.75 0 0 0 .109 1.335 1.76 1.76 0 0 0 .424.535 1.74 1.74 0 0 0 .597.332l4.816 1.398c2.595.682 5.323 1.421 7.485 1.22a1.75 1.75 0 0 0 .654-.194 1.76 1.76 0 0 0 .53-.431c.147-.176.257-.38.325-.6a1.75 1.75 0 0 0 .071-.679c-.021-.229-.087-.451-.195-.655a1.75 1.75 0 0 0-1.03-.855c-.22-.068-.45-.092-.679-.071-.711.066-3.783-.465-6.272-1.12l-4.633-1.345zm229.02-248.894c-4.443.078-7.082 1.147-7.082 1.147-.22.092-.42.228-.585.4a1.76 1.76 0 0 0-.489 1.299c.011.239.072.471.177.686 8.195 16.718-.024 35.138-.024 35.138-.191.423-.206.904-.043 1.338a1.75 1.75 0 0 0 .916.977c.209.095.435.147.665.155a1.76 1.76 0 0 0 .674-.111c.215-.082.412-.204.58-.361s.303-.346.397-.556c0 0 8.23-18.3.719-36.146 1.505-.395 4.025-.845 8.602-.175 6.652.973 16.201 4.557 27.526 15.38a1.75 1.75 0 0 0 2.419-2.529c-11.759-11.239-22.035-15.231-29.438-16.314-1.851-.271-3.533-.354-5.014-.328zm-30.192 17.486s-1.499.813-2.522 2.44c-.511.813-.921 1.905-.842 3.153.06.958.505 1.941 1.15 2.9a7.18 7.18 0 0 0-.046 3.817c.318 1.272 1.095 2.658 2.485 3.698s3.317 1.733 5.908 1.981c6.647.635 16.112-1.875 16.112-1.875.45-.113.836-.401 1.074-.8a1.75 1.75 0 0 0 .193-1.325c-.114-.45-.402-.836-.8-1.074a1.75 1.75 0 0 0-1.326-.193s-9.542 2.296-14.921 1.782c-2.14-.205-3.407-.744-4.147-1.297s-1.028-1.123-1.184-1.748c-.313-1.25.161-2.612.161-2.612.119-.3.152-.628.097-.946s-.198-.614-.411-.856c-.681-.772-.831-1.293-.855-1.671s.087-.71.314-1.072c.455-.724 1.307-1.269 1.307-1.269a1.76 1.76 0 0 0 .514-.45 1.75 1.75 0 0 0 .302-.613 1.74 1.74 0 0 0 .045-.681 1.73 1.73 0 0 0-.219-.647 1.76 1.76 0 0 0-1.063-.817c-.222-.059-.453-.074-.681-.044a1.75 1.75 0 0 0-.647.219h.002z" />
        <path
            d="M213.805 129.976s-3.149 2.227-5.104 5.317c-.977 1.545-1.756 3.455-1.265 5.51s2.272 3.771 5.142 4.885a1.76 1.76 0 0 0 .673.118c.23-.005.456-.056.667-.148a1.75 1.75 0 0 0 .558-.393c.159-.166.284-.362.367-.576.167-.433.157-.914-.03-1.339a1.75 1.75 0 0 0-.968-.926c-2.257-.876-2.839-1.74-3.004-2.433s.105-1.702.816-2.825c1.422-2.248 4.213-4.364 4.213-4.364a1.75 1.75 0 0 0 .696-1.144c.072-.459-.042-.927-.316-1.302a1.75 1.75 0 0 0-2.445-.38z" />
        <path
            d="M222.014 118.56c-3.999 0-7.562.994-10.345 2.194s-4.723 2.506-5.797 3.611c-1.053 1.096-2.331 3.048-1.851 5.527.241 1.239 1.002 2.481 2.243 3.461s2.937 1.752 5.252 2.341c.45.114.927.046 1.326-.191a1.75 1.75 0 0 0 .802-1.072c.114-.45.046-.927-.191-1.326a1.75 1.75 0 0 0-1.072-.802c-1.993-.507-3.243-1.139-3.949-1.697s-.897-.988-.974-1.382c-.152-.785.466-1.937.927-2.417v-.002c.453-.466 2.246-1.793 4.67-2.838s5.544-1.906 8.959-1.906c6.613 0 15.41 4.919 15.41 4.919a1.75 1.75 0 0 0 1.326.179c.448-.119.831-.41 1.065-.811a1.76 1.76 0 0 0 .222-.645 1.78 1.78 0 0 0-.042-.682c-.059-.222-.161-.431-.3-.614a1.76 1.76 0 0 0-.512-.452s-8.935-5.395-17.169-5.395zm2.373-18.218l-15.024 1.934a1.75 1.75 0 0 0-1.513 1.959c.03.228.104.448.218.648s.267.374.449.515a1.74 1.74 0 0 0 .612.303c.222.06.454.076.682.046l15.022-1.932a1.75 1.75 0 0 0 1.162-.666c.283-.368.409-.833.35-1.293-.029-.228-.103-.448-.217-.648a1.74 1.74 0 0 0-1.06-.819 1.76 1.76 0 0 0-.681-.047z" />
        <path
            d="M219.486 100.975c-.461.057-.88.294-1.166.659a1.75 1.75 0 0 0-.358 1.29l2.151 17.598c.057.461.294.88.659 1.166a1.75 1.75 0 0 0 1.29.359c.46-.057.88-.294 1.166-.659a1.75 1.75 0 0 0 .358-1.29l-2.151-17.598c-.057-.461-.294-.88-.659-1.166a1.75 1.75 0 0 0-1.29-.359zm-4.846.622a1.75 1.75 0 0 0-1.172.649c-.288.363-.421.826-.369 1.287l1.997 17.565a1.74 1.74 0 0 0 .208.65 1.73 1.73 0 0 0 .441.522 1.74 1.74 0 0 0 1.938.162 1.73 1.73 0 0 0 .522-.441 1.74 1.74 0 0 0 .37-1.288l-1.999-17.566a1.75 1.75 0 0 0-.649-1.171c-.363-.289-.826-.422-1.287-.369zm11.434 53.016c-.228.028-.449.101-.649.214a1.76 1.76 0 0 0-.518.446c-.141.181-.246.388-.307.61a1.74 1.74 0 0 0-.05.681l26.916 219.114-.549 10.622-3.33-9.546-24.986-220.51a1.75 1.75 0 0 0-.208-.651 1.74 1.74 0 0 0-1.048-.835 1.76 1.76 0 0 0-.681-.056 1.74 1.74 0 0 0-.65.207c-.202.112-.379.261-.522.441s-.25.386-.313.607a1.74 1.74 0 0 0-.057.681l25.01 220.705c.015.129.044.256.087.378l6.332 18.162a1.75 1.75 0 0 0 .744.915c.346.21.754.294 1.155.236a1.75 1.75 0 0 0 1.043-.551c.273-.299.435-.683.457-1.087l1.019-19.69c.006-.101.002-.203-.01-.303l-26.935-219.267a1.75 1.75 0 0 0-1.95-1.523zm11.31 21.283a1.75 1.75 0 0 0-.664.161 1.73 1.73 0 0 0-.551.404c-.156.169-.276.368-.355.584s-.114.445-.104.675a1.75 1.75 0 0 0 .162.663c.097.209.234.396.403.551 0 0 7.889 7.276 12.211 12.698.143.18.32.329.522.441s.422.181.65.207a1.76 1.76 0 0 0 .681-.057c.22-.064.427-.17.606-.314a1.74 1.74 0 0 0 .441-.521c.111-.201.182-.422.207-.651s.007-.459-.057-.68-.17-.427-.313-.607c-4.656-5.841-12.581-13.094-12.581-13.094-.169-.155-.367-.276-.583-.355s-.446-.115-.675-.105zm61.832-77.704c-.229.008-.455.061-.665.156a1.75 1.75 0 0 0-.914.98 1.76 1.76 0 0 0-.11.674s.363 10.48.417 22.188c.026 5.853-.024 12.013-.234 17.3s-.612 9.778-1.15 11.932c-1.366 5.472-3.487 11.585-11.306 15.639s-21.739 5.982-46.654 1.68a1.75 1.75 0 0 0-1.306.294c-.378.268-.636.674-.715 1.131-.039.227-.033.459.017.683a1.77 1.77 0 0 0 .277.624c.132.188.3.348.495.471s.41.206.637.245c25.299 4.369 39.956 2.597 48.86-2.021s11.655-12.15 13.089-17.9c.698-2.795 1.04-7.267 1.253-12.639s.263-11.571.236-17.456c-.055-11.769-.417-22.292-.417-22.292-.008-.23-.061-.456-.156-.665a1.75 1.75 0 0 0-.979-.914c-.216-.081-.445-.118-.675-.11z" />
        <path
            d="M260.853 171.16c-.228-.032-.459-.018-.682.04a1.74 1.74 0 0 0-.614.299 1.76 1.76 0 0 0-.453.511 1.73 1.73 0 0 0-.223.646l-1.322 10.238c-.653 5.379-1.312 11.043-1.236 13.56.052 1.628 1.066 3.044 2.354 3.862s2.854 1.257 4.654 1.544c3.6.574 8.198.47 13.095.072a1.75 1.75 0 0 0 1.192-.61c.3-.353.448-.812.411-1.274a1.75 1.75 0 0 0-1.884-1.603c-4.761.387-9.204.445-12.263-.042-1.53-.244-2.698-.641-3.328-1.042s-.72-.582-.734-1.015c-.048-1.599.565-7.685 1.214-13.03l1.313-10.183a1.75 1.75 0 0 0-1.494-1.973zM248.985 47.126a1.75 1.75 0 0 0-1.382 2.053c1.181 6.045 3.459 10.832 7.286 13.771s9.036 3.796 15.366 2.494a1.75 1.75 0 0 0 .629-.265 1.76 1.76 0 0 0 .48-.486 1.75 1.75 0 0 0 .257-.633c.043-.226.042-.458-.005-.683a1.76 1.76 0 0 0-.265-.629 1.75 1.75 0 0 0-1.802-.732c-5.686 1.17-9.635.383-12.528-1.84s-4.898-6.116-5.983-11.668a1.75 1.75 0 0 0-2.053-1.382zm15.894 3.747a1.75 1.75 0 0 0-1.247.489c-2.169 2.088-4.174 2.785-4.174 2.785a1.75 1.75 0 0 0 1.16 3.302s2.751-.975 5.442-3.566a1.76 1.76 0 0 0 .39-.561c.092-.211.142-.437.146-.667s-.037-.458-.121-.672a1.76 1.76 0 0 0-.369-.575 1.75 1.75 0 0 0-1.227-.535zM258.1 29.375a1.75 1.75 0 0 0-.672.122c-.214.084-.409.21-.574.37a1.73 1.73 0 0 0-.389.562c-.092.211-.141.438-.145.668-.026 1.675-.39 2.811-.77 3.435s-.682.715-.848.73-.411-.016-.797-.485-.813-1.387-.961-2.793c-.049-.461-.279-.884-.639-1.176a1.75 1.75 0 0 0-2.842 1.542c.202 1.927.792 3.499 1.74 4.651s2.355 1.874 3.802 1.748 2.724-1.069 3.534-2.397 1.248-3.061 1.283-5.198a1.75 1.75 0 0 0-1.722-1.778zM272.231.588a32.08 32.08 0 0 0-10.115.867c-6.218 1.544-11.205 4.652-14.095 7.847-1.604 1.773-2.196 3.995-1.842 6.017s1.525 3.813 3.105 5.261c2.718 2.49 6.762 3.972 10.976 3.64.019.798-.01 1.096.109 2.387.213 2.327.477 4.944 1.797 6.914 1.095 1.634 2.906 2.771 4.935 2.648s3.943-1.541 5.219-3.935c.942-1.769 1.877-2.4 2.449-2.544s1.052-.009 1.695.66c.052.055.456.746.627 1.715s.193 2.216-.063 3.511c-.514 2.59-2.017 5.346-5.667 7.171-1.144.571-1.829 1.916-1.834 3.027s.37 2.091.871 3.055c1.002 1.928 2.623 3.799 4.341 5.164 2.386 1.896 4.975 3.228 7.755 3.624s5.705-.204 8.498-1.914c5.899-3.615 10.185-10.948 10.011-20.386v-.002c-.08-4.577-.681-10.694-3.17-16.623S290.888 7.009 283.33 3.5c-3.766-1.748-7.517-2.644-11.102-2.912h.003zm-.273 3.483c3.186.237 6.523 1.036 9.902 2.604 6.723 3.122 10.518 8.054 12.749 13.371s2.823 11.011 2.898 15.33c.155 8.356-3.593 14.432-8.339 17.341-2.201 1.348-4.187 1.717-6.176 1.434s-4.029-1.274-6.071-2.898c-1.298-1.033-2.726-2.714-3.415-4.04-.34-.656-.466-1.213-.468-1.406 4.524-2.31 6.744-6.108 7.426-9.55.345-1.737.329-3.386.078-4.802s-.655-2.599-1.554-3.531c-1.282-1.333-3.194-2.1-5.072-1.627s-3.453 1.98-4.683 4.29c-.897 1.684-1.745 2.053-2.341 2.09s-1.276-.296-1.818-1.104c-.44-.657-1.025-3.154-1.221-5.285s-.181-3.956-.181-3.956a1.75 1.75 0 0 0-.17-.765 1.74 1.74 0 0 0-.487-.614c-.206-.165-.448-.282-.706-.34a1.75 1.75 0 0 0-.784.002c-3.643.851-7.587-.517-9.876-2.614-1.145-1.049-1.84-2.237-2.023-3.284s.011-1.983.991-3.067c2.279-2.519 6.785-5.418 12.341-6.797 2.778-.69 5.814-1.017 9-.78z" />
        <path
            d="M261.922 22.317s-.062 7.603 1.699 10.229c1.637 2.44 4.983 2.942 7.156-1.137s5.024-4.275 6.95-2.274c1.904 1.973 2.677 11.049-5.581 15.177-2.409 1.204.669 5.913 3.686 8.309 4.428 3.52 9.256 4.647 14.25 1.588 5.323-3.262 9.339-9.967 9.174-18.863-.155-8.896-2.378-23.627-16.659-30.259-14.291-6.631-28.109-.326-33.277 5.387s4.026 13.845 12.602 11.842z"
            fill-rule="evenodd" />
        <path
            d="M248.538 15.007a1.75 1.75 0 0 0-1.248.483s-5.656 5.122-5.193 12.004c.222 3.295 1.507 5.666 2.373 7.453s1.274 2.722.787 4.135c-.763 2.21-1.667 5.818-6.868 8.036-.211.09-.403.221-.564.385a1.75 1.75 0 0 0-.373.572 1.73 1.73 0 0 0-.126.671 1.76 1.76 0 0 0 .14.668 1.75 1.75 0 0 0 .385.564 1.76 1.76 0 0 0 .572.373 1.73 1.73 0 0 0 .671.126 1.77 1.77 0 0 0 .669-.14c6.432-2.744 8.122-8.144 8.802-10.113v-.002c.901-2.613-.028-4.91-.946-6.801s-1.861-3.645-2.031-6.162c-.319-4.741 4.115-9.234 4.115-9.234a1.75 1.75 0 0 0 .061-2.474 1.76 1.76 0 0 0-.559-.393 1.75 1.75 0 0 0-.667-.15zm39.156 67.869c-5.354-.27-12.056 1.92-15.748 10.268a1.72 1.72 0 0 0-.072.197l-4.455 15.315c-2.263 8.141-4.604 17.026-4.924 21.353-.035.463.116.92.419 1.272a1.75 1.75 0 0 0 2.467.183c.351-.303.568-.733.603-1.195.246-3.326 2.559-12.585 4.808-20.675l4.384-15.081c3.185-7.152 7.946-8.362 12.341-8.141 4.407.222 8.152 2.224 8.152 2.224.202.11.424.179.652.204s.46.004.681-.061.426-.173.605-.317a1.75 1.75 0 0 0-.263-2.898s-4.297-2.378-9.65-2.648z" />
        <path
            d="M297.994 67.225c-6.431-.171-13.037 1.509-18.596 4.056s-10.091 5.888-12.333 9.605c-1.175 1.953-1.426 4.064-1.112 5.929s1.136 3.508 2.049 4.887c1.826 2.758 4.139 4.575 4.139 4.575a1.75 1.75 0 0 0 1.287.368c.461-.053.882-.286 1.17-.649a1.75 1.75 0 0 0-.279-2.457s-1.935-1.559-3.399-3.769c-.732-1.105-1.315-2.344-1.516-3.535a4.87 4.87 0 0 1 .66-3.539v-.002c1.599-2.649 5.666-5.878 10.792-8.227s11.296-3.894 17.045-3.74c2.947.078 4.628.41 5.888 1.092s2.321 1.827 3.829 3.962c.86 1.219 1.819 1.247 2.91 1.512s2.453.527 4.177.947c3.447.84 8.307 2.298 14.601 5.518v-.002c6.31 3.231 15.251 10.172 22.811 19.03s13.745 19.633 15.014 30.475c1.02 8.707-.274 20.447-3.514 30.248s-8.472 17.4-14.362 18.859c-6.809 1.687-13.049 2.329-17.885 2.244s-8.351-1.155-9.114-1.791v-.002c-.213-.178-.499-.72-.559-1.857s.113-2.709.438-4.452c.651-3.486 1.867-7.64 2.532-11.226 2.298-12.335 2.273-29.247-4.002-50.997v-.002c-4.009-13.876-9.389-23.776-14.629-29.188-2.62-2.706-5.234-4.39-7.944-4.563s-5.184 1.597-6.467 4.463a1.74 1.74 0 0 0-.038 1.339 1.75 1.75 0 0 0 .921.973 1.75 1.75 0 0 0 .666.152c.23.007.458-.032.673-.114s.411-.205.578-.363.302-.347.395-.557c.905-2.021 1.754-2.482 3.049-2.399s3.368 1.144 5.653 3.503c4.569 4.719 9.881 14.235 13.779 27.727 6.141 21.288 6.117 37.621 3.925 49.387-.611 3.298-1.831 7.468-2.531 11.223-.351 1.878-.579 3.653-.493 5.279s.496 3.263 1.812 4.36c2.295 1.915 6.1 2.516 11.295 2.606s11.696-.592 18.787-2.348c8.01-1.985 13.434-10.84 16.845-21.158s4.765-22.361 3.664-31.754c-1.388-11.869-7.975-23.138-15.828-32.339s-16.965-16.335-23.876-19.873c-6.565-3.359-11.745-4.92-15.366-5.802-1.81-.441-3.237-.718-4.176-.947s-1.25-.654-.879-.129c-1.611-2.28-3.041-3.953-5.022-5.023s-4.29-1.428-7.458-1.512h-.006z" />
        <path
            d="M273.227 94.906s-8.494-6.752-4.664-13.118c3.841-6.366 17.205-13.139 29.385-12.814 6.116.163 7.98 1.379 11.1 5.795.978 1.387 8.195.847 21.055 7.427 13.22 6.769 36.108 28.148 38.765 50.858 2.121 18.1-5.292 47.567-19.192 51.01s-25.483 2.648-28.541.096.536-12.315 1.812-19.198c2.245-12.051 2.245-28.674-3.964-50.193-7.907-27.369-21.385-38.832-25.761-29.06-5.065-1.658-14.744-3.015-19.675 8.142l-.32 1.054z"
            fill-rule="evenodd" />
        <path
            d="M286.332 53.958a1.75 1.75 0 0 0-1.22 2.152s2.57 9.589 11.404 14.393a1.75 1.75 0 0 0 1.331.14c.445-.132.82-.435 1.042-.842a1.75 1.75 0 0 0-.702-2.373c-7.352-3.998-9.703-12.249-9.703-12.249-.124-.447-.42-.827-.823-1.056a1.75 1.75 0 0 0-1.329-.165zm21.413 6.035c-1.923-.017-3.546.658-4.605 1.727s-1.553 2.395-1.794 3.6c-.483 2.409-.021 4.633-.021 4.633.043.226.13.441.257.633a1.76 1.76 0 0 0 1.107.753 1.75 1.75 0 0 0 .683.005 1.76 1.76 0 0 0 .634-.256c.192-.126.357-.289.486-.479a1.76 1.76 0 0 0 .267-.629c.047-.225.048-.457.005-.683 0 0-.296-1.744.015-3.29.154-.773.446-1.42.846-1.824s.913-.702 2.089-.692c3.692.032 6.987.413 9.072 1.305s2.956 1.84 2.908 4.131l-.072 9.504a1.75 1.75 0 0 0 1.779 1.719 1.75 1.75 0 0 0 1.72-1.78l.072-9.367c.075-3.549-2.121-6.181-5.03-7.425s-6.532-1.553-10.418-1.587z" />
        <path
            d="M282.164 197.783s14.363 1.633 27.584.49 28.788-3.756 31.506-4.734c4.077-1.469 4.726 3.019 3.583 9.468s-6.507 31.22-6.188 35.046 5.807 12.519 8.196 25.431 9.832 47.002 7.948 92.891c-.123 3.109-.401 4.938-2.77 6.326-2.357 1.387-6.929 3.673-8.566 1.632-1.627-2.041-.082-29.657-.566-40.267-.494-10.611-3.563-53-10.482-79.285-1.554-5.901-1.462-8.552.587-20.59 2.039-12.039 3.058-19.882 2.667-22.297s-2.409-1.11-3.202-.392c-.783.718-1.369 7.965-1.493 11.556-.134 3.592-3.12 21.869-1.081 30.642s10.378 47.408 11.006 118.795c.042 4.027-2.903 5.262-6.497 5.752s-18.852 3.101-23.825.571c-4.983-2.531-5.982-2.204-7.681-11.018-1.709-8.815-19.315-77.351-21.313-87.712-1.987-10.361-7.155-72.903.587-72.305z"
            fill-rule="evenodd" />
        <path
            d="M351.157 358.182a1.76 1.76 0 0 0-.68.071c-.219.068-.424.178-.601.325a1.75 1.75 0 0 0-.229 2.464s.352.357.953 2.057 1.311 4.58 1.591 9.096c.284 4.668.675 10.196.336 14.389-.17 2.096-.549 3.852-1.05 4.874s-.783 1.231-1.488 1.241c-5.434.08-9.564-.398-9.564-.398a1.76 1.76 0 0 0-.681.056c-.221.063-.427.169-.607.312s-.33.32-.442.52a1.78 1.78 0 0 0-.209.65c-.053.461.079.924.367 1.288a1.75 1.75 0 0 0 1.17.651s4.353.503 10.018.42c2.07-.03 3.735-1.477 4.579-3.201s1.206-3.809 1.394-6.13c.376-4.641-.045-10.252-.328-14.887v-.002c-.297-4.789-1.057-7.991-1.784-10.045s-1.558-3.125-1.558-3.125a1.75 1.75 0 0 0-1.185-.626h-.002zm-18.538 4.654a1.74 1.74 0 0 0-.644.229c-.198.118-.37.273-.507.458s-.237.394-.293.617-.068.455-.034.683c0 0 .667 4.526 1.124 10.099.451 5.505.637 12.049-.097 15.885-.342.799-1.074 1.359-1.933 1.426-7.14.629-26.624 2.006-36.026 1.033-1.214-.264-2-1.366-1.837-2.596.206-1.372.666-2.834 1.519-3.941.856-1.113 2.05-1.962 4.253-2.225 4.65-.554 10.229-2.005 14.708-4.947s7.866-7.672 7.286-14.006a1.75 1.75 0 0 0-1.902-1.583c-.462.042-.889.267-1.186.623a1.75 1.75 0 0 0-.397 1.279c.459 5.011-1.935 8.275-5.721 10.761s-8.956 3.892-13.202 4.398c-3.017.36-5.24 1.781-6.612 3.564s-1.953 3.833-2.212 5.585v.022c-.409 3.037 1.633 5.907 4.639 6.515a1.49 1.49 0 0 0 .163.024c10.176 1.081 29.547-.376 36.8-1.015 2.255-.176 4.209-1.656 5.002-3.779a1.89 1.89 0 0 0 .076-.267c.932-4.643.634-11.346.167-17.042s-1.151-10.324-1.151-10.324c-.067-.459-.314-.872-.686-1.149s-.839-.395-1.297-.327z" />
    </g>
    <defs>
        <path
            d="M82.099 25.593c0 .38-.151.745-.42 1.014s-.634.42-1.014.42-.745-.151-1.014-.42-.42-.634-.42-1.014.151-.745.42-1.014.634-.42 1.014-.42.745.151 1.014.42.42.634.42 1.014z"
            id="B" />
    </defs>
</svg>